<?xml version="1.0" encoding="utf-8"?>
<!-- Generator: Adobe Illustrator 26.3.1, SVG Export Plug-In . SVG Version: 6.00 Build 0)  -->
<svg version="1.1" id="Layer_1" xmlns="http://www.w3.org/2000/svg" xmlns:xlink="http://www.w3.org/1999/xlink" x="0px" y="0px"
	 viewBox="0 0 1945 2810" style="enable-background:new 0 0 1945 2810;" xml:space="preserve">
<style type="text/css">
	.st0{display:none;fill:none;stroke:#FFD700;stroke-miterlimit:10;}
	.st1{fill:none;stroke:#FFD700;stroke-width:4;stroke-miterlimit:10;}
</style>
<g>
	<path class="st0" d="M1921.03,2779.83c-633.01,0-1266.02,0-1899.03,0C22,1876.22,22,972.61,22,69c633.01,0,1266.02,0,1899.03,0
		C1921.03,972.61,1921.03,1876.22,1921.03,2779.83z M1130.15,2733.42c20.65-1.32,39.86-2.6,59.07-3.78
		c65.32-4.03,129.02-16.4,190.84-37.91c111.87-38.93,207.22-102.33,282.03-194.69c67.49-83.32,112.13-178.16,139.79-281.71
		c29.79-111.54,32.08-225.75,36.83-339.84c2.12-51.02,3.9-102.05,5.73-153.07c2.04-56.81,3.93-113.63,5.93-170.45
		c1.89-53.92,4.07-107.84,5.69-161.77c2.19-72.74,3.53-145.5,6.04-218.22c2.23-64.49,5.76-128.94,8.31-193.43
		c1.44-36.59,2.05-73.22,3.05-109.83c1.1-39.99,1.88-79.99,3.4-119.96c2.48-65.45,5.51-130.88,8.16-196.33
		c2.03-50.06,4.13-100.11,5.67-150.18c2.26-73.7,3.94-147.42,6.13-221.12c0.3-10.17-3.32-14.25-13.74-15.78
		c-87.71-12.93-175.33-26.46-262.98-39.78c-63.83-9.7-127.69-19.25-191.5-29.11c-12.22-1.89-19.2,0.64-19.67,14.88
		c-1.13,34.16-3.59,68.28-4.72,102.44c-1.47,44.32-2.04,88.67-3.24,133c-0.78,28.9-1.91,57.78-2.99,86.67
		c-2.74,73.16-5.44,146.33-8.35,219.49c-2.73,68.82-5.99,137.63-8.48,206.46c-1.55,42.87-2.02,85.77-3.18,128.66
		c-0.89,32.75-1.87,65.51-3.24,98.25c-2.61,62.55-5.89,125.07-8.17,187.64c-1.66,45.28-2.03,90.6-3.22,135.89
		c-0.74,27.93-1.92,55.85-2.98,83.78c-2.76,73.16-5.49,146.32-8.35,219.48c-2.81,71.72-6.2,143.41-8.55,215.15
		c-2.25,68.52-12.07,135.37-39.65,198.75c-33.52,77.03-86.99,133.13-169.61,155.89c-64.37,17.73-128.33,8.08-190.97-10.7
		c-45.66-13.69-87.71-34.68-123.06-67.69c-45.67-42.65-71.63-96.19-86.82-155.74c-13.6-53.28-16.1-107.58-14.9-162.26
		c0.47-21.53-2.36-23.79-23.01-26.75c-76.79-10.99-153.54-22.27-230.3-33.43c-74.86-10.89-149.7-21.84-224.58-32.58
		c-17.31-2.48-20.85,0.43-20.28,18.18c1.42,44.28,2.17,88.65,5.57,132.8c6.2,80.63,23.15,159.1,49.81,235.63
		c39.96,114.7,104.17,213.89,190.07,298.96c59.36,58.78,127.47,106.29,202.29,143.19C813.95,2694.42,969.74,2726.32,1130.15,2733.42
		z M1020.41,2260.13c12.32-4.09,24.91-7.52,36.92-12.39c50.3-20.38,101.84-35.02,156.52-36.91c4.62-0.16,10.43-3.52,13.42-7.22
		c17.45-21.67,37.39-42.14,50.64-66.24c37.14-67.57,46.68-142.39,50.02-218.1c3.12-70.85,5.33-141.75,7.87-212.63
		c3.89-108.49,7.71-216.98,11.56-325.47c3.88-109.46,7.75-218.91,11.63-328.37c3.83-108.01,7.65-216.02,11.52-324.03
		c4.05-113.31,8.24-226.62,12.2-339.94c3.53-100.78,6.86-201.56,10.19-302.35c0.14-4.17-0.55-8.37-0.94-13.74
		c-5.5,0.54-9.74,0.77-13.91,1.39c-42.43,6.33-84.86,12.73-127.29,19.08c-34.72,5.2-34.72,5.18-36.14,40.56
		c-0.06,1.45-0.19,2.89-0.24,4.34c-7.31,201.1-14.72,402.2-21.9,603.3c-5.41,151.43-10.41,302.88-15.78,454.31
		c-6.3,177.48-12.58,354.95-19.29,532.41c-3.43,90.64-4.7,181.51-12.55,271.79C1136.09,2100.96,1105.71,2193.95,1020.41,2260.13z
		 M204.67,1771.94c-3.95-1.09-4.92-1.68-5.79-1.56c-53.93,7.6-107.89,15-161.69,23.4c-3.94,0.61-9.53,8.36-9.64,12.91
		c-0.84,34.68-1.52,69.43-0.35,104.09c3.55,104.74,20.2,207.28,56.17,306.02c69.84,191.7,194.04,338.38,373.88,433.65
		c193.57,102.53,400.59,143.81,619.49,116.61c27.63-3.43,55.15-7.7,82.72-11.58c-32.96-2.61-65.76-3.02-98.35-5.82
		c-80.9-6.97-160.36-22.11-238.27-45.16c-118.38-35.02-226.83-89.05-321.88-168.59c-138.02-115.5-224.83-262.49-267.39-436.52
		c-24.7-101.02-31.97-203.72-28.93-307.37C204.83,1785.4,204.67,1778.77,204.67,1771.94z"/>
	<path class="st1" d="M1130.15,2733.42c-160.4-7.1-316.19-39-462.15-110.97c-74.82-36.89-142.93-84.4-202.29-143.19
		c-85.9-85.07-150.11-184.26-190.07-298.96c-26.66-76.53-43.62-154.99-49.81-235.63c-3.39-44.15-4.15-88.51-5.57-132.8
		c-0.57-17.76,2.97-20.67,20.28-18.18c74.88,10.74,149.72,21.7,224.58,32.58c76.76,11.16,153.51,22.44,230.3,33.43
		c20.65,2.96,23.48,5.22,23.01,26.75c-1.2,54.68,1.3,108.98,14.9,162.26c15.2,59.55,41.16,113.09,86.82,155.74
		c35.34,33.01,77.4,54,123.06,67.69c62.65,18.78,126.6,28.43,190.97,10.7c82.62-22.75,136.09-78.86,169.61-155.89
		c27.58-63.38,37.4-130.23,39.65-198.75c2.35-71.73,5.74-143.43,8.55-215.15c2.87-73.16,5.6-146.32,8.35-219.48
		c1.05-27.92,2.24-55.85,2.98-83.78c1.2-45.29,1.57-90.62,3.22-135.89c2.29-62.56,5.57-125.09,8.17-187.64
		c1.36-32.74,2.35-65.49,3.24-98.25c1.16-42.88,1.63-85.79,3.18-128.66c2.5-68.83,5.75-137.63,8.48-206.46
		c2.91-73.16,5.61-146.32,8.35-219.49c1.08-28.89,2.21-57.77,2.99-86.67c1.19-44.33,1.77-88.68,3.24-133
		c1.13-34.16,3.6-68.28,4.72-102.44c0.47-14.23,7.45-16.77,19.67-14.88c63.81,9.86,127.67,19.41,191.5,29.11
		c87.65,13.32,175.27,26.86,262.98,39.78c10.42,1.54,14.04,5.61,13.74,15.78c-2.19,73.7-3.87,147.42-6.13,221.12
		c-1.53,50.07-3.64,100.13-5.67,150.18c-2.65,65.44-5.69,130.87-8.16,196.33c-1.51,39.97-2.3,79.97-3.4,119.96
		c-1,36.61-1.61,73.24-3.05,109.83c-2.55,64.48-6.08,128.93-8.31,193.43c-2.51,72.72-3.85,145.49-6.04,218.22
		c-1.62,53.93-3.8,107.84-5.69,161.77c-1.99,56.82-3.89,113.63-5.93,170.45c-1.83,51.03-3.61,102.06-5.73,153.07
		c-4.74,114.08-7.04,228.3-36.83,339.84c-27.66,103.56-72.3,198.39-139.79,281.71c-74.81,92.36-170.16,155.76-282.03,194.69
		c-61.81,21.51-125.51,33.88-190.84,37.91C1170,2730.83,1150.79,2732.1,1130.15,2733.42z"/>
	<path class="st1" d="M1020.41,2260.13c85.3-66.19,115.68-159.18,124.45-260.19c7.84-90.28,9.12-181.15,12.55-271.79
		c6.71-177.46,13-354.94,19.29-532.41c5.37-151.43,10.38-302.88,15.78-454.31c7.18-201.11,14.59-402.2,21.9-603.3
		c0.05-1.45,0.18-2.89,0.24-4.34c1.42-35.38,1.42-35.36,36.14-40.56c42.43-6.35,84.85-12.75,127.29-19.08
		c4.17-0.62,8.41-0.85,13.91-1.39c0.39,5.37,1.08,9.56,0.94,13.74c-3.34,100.79-6.66,201.57-10.19,302.35
		c-3.97,113.32-8.15,226.63-12.2,339.94c-3.86,108.01-7.69,216.02-11.52,324.03c-3.88,109.46-7.75,218.91-11.63,328.37
		c-3.85,108.49-7.67,216.98-11.56,325.47c-2.54,70.88-4.75,141.78-7.87,212.63c-3.34,75.7-12.88,150.53-50.02,218.1
		c-13.25,24.1-33.18,44.57-50.64,66.24c-2.99,3.71-8.8,7.06-13.42,7.22c-54.68,1.89-106.22,16.53-156.52,36.91
		C1045.32,2252.61,1032.73,2256.04,1020.41,2260.13z"/>
	<path class="st1" d="M204.67,1771.94c0,6.82,0.17,13.46-0.03,20.08c-3.04,103.66,4.23,206.35,28.93,307.37
		c42.55,174.03,129.37,321.02,267.39,436.52c95.05,79.54,203.5,133.57,321.88,168.59c77.91,23.05,157.37,38.19,238.27,45.16
		c32.59,2.81,65.39,3.21,98.35,5.82c-27.57,3.88-55.09,8.15-82.72,11.58c-218.9,27.2-425.92-14.08-619.49-116.61
		c-179.85-95.26-304.04-241.95-373.88-433.65c-35.98-98.75-52.63-201.29-56.17-306.02c-1.17-34.66-0.49-69.41,0.35-104.09
		c0.11-4.55,5.71-12.29,9.64-12.91c53.8-8.4,107.76-15.81,161.69-23.4C199.75,1770.26,200.71,1770.85,204.67,1771.94z"/>
</g>
</svg>
